<?xml version="1.0" standalone="no"?><!DOCTYPE svg PUBLIC "-//W3C//DTD SVG 1.1//EN" "http://www.w3.org/Graphics/SVG/1.1/DTD/svg11.dtd"><svg t="1546953421783" class="icon" style="" viewBox="0 0 1210 1024" version="1.1" xmlns="http://www.w3.org/2000/svg" p-id="9088" data-spm-anchor-id="a313x.7781069.0.i7" xmlns:xlink="http://www.w3.org/1999/xlink" width="151.25" height="128"><defs><style type="text/css"></style></defs><path d="M46.545455 1024h1117.090909c14.894545 0 29.882182-8.843636 46.545454-46.545455-2.141091 7.447273 0.093091-3.490909 0 0V0c0 5.399273 0 2.885818 0 0H0v977.454545c0 20.107636 20.386909 45.754182 46.545455 46.545455zM93.090909 276.340364C93.090909 255.069091 93.370182 251.345455 93.090909 232.727273c1.861818 6.656 4.840727 2.280727 0 0 14.429091 0.232727 17.547636-0.046545 0 0h1024c-18.897455 0-17.082182 0 0 0-5.771636 0.884364-1.768727 5.259636 0 0-0.139636 20.061091 0 22.807273 0 43.659636v610.909091c0 21.643636-0.279273 25.181091 0 43.613091-1.815273-6.516364-5.12-2.094545 0 0-14.615273-0.186182-17.501091 0 0 0H93.090909c4.840727 0 0.139636-6.144 0-43.659636V276.386909zM372.363636 651.636364l93.090909 46.545454c-2.699636-1.256727-1.396364-0.605091 0 0-0.046545-12.427636 0.139636-24.389818 0-46.545454-0.232727 8.890182-2.653091 6.981818 0 0-45.149091-15.918545-86.016-37.701818-139.636363-46.545455-6.702545-23.365818-25.832727-33.792-46.545455-46.545454 9.262545-5.12 19.409455-10.752 46.545455 0 33.652364-43.845818 84.200727-71.261091 139.636363-93.09091-1.163636-7.354182-0.046545-9.495273 0 0a1070.545455 1070.545455 0 0 1 0-46.545454c-4.189091 1.954909-7.540364 3.723636 0 0-83.223273 43.752727-155.322182 81.873455-232.727272 139.636364 1.210182-17.733818-0.325818-15.36 0 0 0.465455-3.025455 0.465455 4.328727 0 0-0.139636 16.197818 1.396364 18.152727 0 0 56.226909 46.917818 107.659636 74.146909 139.636363 93.090909z m279.272728 186.181818c8.471273-1.396364 10.286545 0 0 0 24.948364-0.465455 35.374545-0.232727 46.545454 0-0.791273-2.932364-1.256727-4.980364 0 0-50.082909-157.882182-98.397091-308.456727-139.636363-465.454546-8.238545 1.396364-10.286545-0.186182 0 0-24.948364 0.465455-35.374545 0.232727-46.545455 0 1.256727 4.328727 2.048 7.773091 0 0 51.2 160.442182 98.955636 309.992727 139.636364 465.454546z m93.090909-186.181818c1.163636 7.819636-0.186182 10.007273 0 0 0.372364 25.041455 0.186182 35.467636 0 46.545454 2.094545-0.837818 3.397818-1.303273 0 0l232.727272-139.636363c-0.930909 18.478545 0.186182 16.290909 0 0-0.279273 4.189091-0.279273-3.770182 0 0 0.186182-15.453091-0.930909-17.408 0 0-67.258182-52.224-130.56-85.690182-186.181818-139.636364-20.107636 13.963636-32.674909 7.168-46.545454 0 0.186182 12.846545 0 24.576 0 46.545454 0.372364-8.471273 2.792727-6.283636 0 0 37.888 13.079273 71.540364 31.138909 93.090909 46.545455l93.090909 46.545455c-62.743273 35.700364-121.949091 67.444364-186.181818 93.090909z" p-id="9089" data-spm-anchor-id="a313x.7781069.0.i1" class="" fill="#1afa90"></path></svg>