<?xml version="1.0" standalone="no"?><!DOCTYPE svg PUBLIC "-//W3C//DTD SVG 1.1//EN" "http://www.w3.org/Graphics/SVG/1.1/DTD/svg11.dtd"><svg t="1546954771169" class="icon" style="" viewBox="0 0 1024 1024" version="1.1" xmlns="http://www.w3.org/2000/svg" p-id="2295" data-spm-anchor-id="a313x.7781069.0.i1" xmlns:xlink="http://www.w3.org/1999/xlink" width="128" height="128"><defs><style type="text/css"></style></defs><path d="M780.294001 66.727751 243.596506 66.727751c-10.707876 0-19.404955 8.697079-19.404955 19.459191l0 851.627141c0 10.763135 8.697079 19.459191 19.404955 19.459191l536.697495 0c10.816347 0 19.512403-8.696056 19.512403-19.459191L799.806403 86.185918C799.807427 75.423807 791.11137 66.727751 780.294001 66.727751L780.294001 66.727751zM551.949362 96.514147c3.858888 0 7.013741 3.152806 7.013741 7.065929 0 3.858888-3.15383 6.957459-7.013741 6.957459-3.913123 0-7.064906-3.098571-7.064906-6.957459C544.884456 99.66593 548.036239 96.514147 551.949362 96.514147L551.949362 96.514147zM428.511006 96.514147l85.11861 0c3.643993 0 6.631024 3.043313 6.631024 6.631024 0 3.696182-2.988054 6.631024-6.631024 6.631024l-85.11861 0c-3.587712 0-6.576789-2.935865-6.576789-6.631024C421.934217 99.55746 424.923294 96.514147 428.511006 96.514147L428.511006 96.514147zM512.000512 922.648684c-25.927509 0-46.962591-21.035082-46.962591-46.908356 0-25.981744 21.035082-47.015803 46.962591-47.015803 25.926486 0 46.962591 21.035082 46.962591 47.015803C558.96208 901.613602 537.926997 922.648684 512.000512 922.648684L512.000512 922.648684zM754.530221 776.706801c0 7.93574-7.339152 14.3488-16.414855 14.3488L285.884634 791.0556c-9.077749 0-16.415878-6.414083-16.415878-14.3488L269.468756 151.086044c0-7.881504 7.338129-14.241352 16.415878-14.241352l452.230732 0c9.075703 0 16.414855 6.359848 16.414855 14.241352L754.530221 776.706801 754.530221 776.706801zM754.530221 776.706801" p-id="2296" fill="#13227a" data-spm-anchor-id="a313x.7781069.0.i3" class="selected"></path><path d="M471.396745 456.287117c-19.459191-10.000771-38.373982-15.056927-56.257282-15.056927-2.391467 0-4.891404 0.055259-7.337105 0.272199-22.720468 1.902326-43.537586 7.881504-56.964386 12.55699-3.533476 1.303692-7.1744 2.663666-10.870582 4.239558L303.332005 585.161277c25.166169-9.240455 47.397496-13.806447 67.725474-13.806447 32.993438 0 56.909128 12.284791 76.694753 24.949228 9.348925-31.743982 31.797194-108.437711 38.482453-131.37512-4.891404-2.934842-9.838066-5.924943-14.838963-8.697079L471.395722 456.287117zM518.629489 488.519216l-36.797068 128.059608c10.871605 6.250354 47.723931 26.090215 75.879178 26.090215 22.720468 0 48.15986-5.816472 77.727269-17.829064l35.222199-123.05871c-23.915689 7.718799-46.799886 11.577686-68.215638 11.577686-39.07904 0-66.474994-12.665461-83.759659-24.839735L518.629489 488.519216zM422.694533 397.964804c31.417547 0.325411 54.680367 12.283768 73.922616 24.676006l37.776372-129.3633c-7.934716-4.565992-28.806069-15.980973-43.972491-19.784602-9.892301-2.391467-20.327978-3.533476-31.416524-3.533476-21.143553 0.38067-44.190455 5.706979-70.497611 16.252149l-36.036751 126.536928c26.415626-9.892301 49.136094-14.783705 70.171176-14.783705l0 0L422.694533 397.964804zM720.666972 328.390215c-23.969924 9.29469-47.288003 14.024411-69.736271 14.024411-37.34249 0-64.900126-12.936637-82.728166-25.438369l-37.504172 129.744993c25.167193 16.196891 52.2889 24.405853 80.771605 24.405853 23.263843 0 47.288003-5.599532 71.529103-16.632819l-0.107447-0.870834 1.520633-0.325411L720.666972 328.390215 720.666972 328.390215zM720.666972 328.390215" p-id="2297" fill="#1296db" data-spm-anchor-id="a313x.7781069.0.i2" class=""></path></svg>